<?xml version="1.0" encoding="UTF-8"?>
<svg xmlns="http://www.w3.org/2000/svg" xmlns:xlink="http://www.w3.org/1999/xlink" width="425" height="262" viewBox="0 0 425 262">
<defs>
<g>
<g id="glyph-0-0-003d2b95">
<path d="M 7.21875 -2.5 C 7.21875 -2.609375 7.125 -2.703125 7.015625 -2.703125 L 0.765625 -2.703125 C 0.65625 -2.703125 0.5625 -2.609375 0.5625 -2.5 C 0.5625 -2.390625 0.65625 -2.296875 0.765625 -2.296875 L 7.015625 -2.296875 C 7.125 -2.296875 7.21875 -2.390625 7.21875 -2.5 Z M 7.21875 -2.5 "/>
</g>
<g id="glyph-1-0-003d2b95">
<path d="M 4.1875 0 L 4.1875 -0.3125 L 3.875 -0.3125 C 2.96875 -0.3125 2.9375 -0.421875 2.9375 -0.796875 L 2.9375 -6.40625 C 2.9375 -6.640625 2.9375 -6.65625 2.703125 -6.65625 C 2.09375 -6.015625 1.203125 -6.015625 0.890625 -6.015625 L 0.890625 -5.703125 C 1.09375 -5.703125 1.6875 -5.703125 2.203125 -5.96875 L 2.203125 -0.796875 C 2.203125 -0.4375 2.171875 -0.3125 1.265625 -0.3125 L 0.953125 -0.3125 L 0.953125 0 C 1.296875 -0.03125 2.171875 -0.03125 2.5625 -0.03125 C 2.96875 -0.03125 3.84375 -0.03125 4.1875 0 Z M 4.1875 0 "/>
</g>
<g id="glyph-1-1-003d2b95">
<path d="M 1.921875 -0.53125 C 1.921875 -0.8125 1.6875 -1.0625 1.390625 -1.0625 C 1.09375 -1.0625 0.859375 -0.8125 0.859375 -0.53125 C 0.859375 -0.234375 1.09375 0 1.390625 0 C 1.6875 0 1.921875 -0.234375 1.921875 -0.53125 Z M 1.921875 -0.53125 "/>
</g>
<g id="glyph-1-2-003d2b95">
<path d="M 4.59375 -3.203125 C 4.59375 -4 4.546875 -4.796875 4.203125 -5.546875 C 3.734375 -6.5 2.921875 -6.65625 2.5 -6.65625 C 1.90625 -6.65625 1.171875 -6.40625 0.765625 -5.46875 C 0.4375 -4.78125 0.390625 -4 0.390625 -3.203125 C 0.390625 -2.453125 0.4375 -1.546875 0.84375 -0.796875 C 1.265625 0.015625 2 0.21875 2.484375 0.21875 C 3.03125 0.21875 3.796875 0.015625 4.234375 -0.9375 C 4.546875 -1.625 4.59375 -2.40625 4.59375 -3.203125 Z M 3.765625 -3.3125 C 3.765625 -2.5625 3.765625 -1.890625 3.65625 -1.25 C 3.515625 -0.296875 2.9375 0 2.484375 0 C 2.09375 0 1.515625 -0.25 1.328125 -1.203125 C 1.21875 -1.8125 1.21875 -2.734375 1.21875 -3.3125 C 1.21875 -3.953125 1.21875 -4.625 1.296875 -5.15625 C 1.484375 -6.34375 2.234375 -6.4375 2.484375 -6.4375 C 2.8125 -6.4375 3.484375 -6.265625 3.671875 -5.265625 C 3.765625 -4.703125 3.765625 -3.953125 3.765625 -3.3125 Z M 3.765625 -3.3125 "/>
</g>
<g id="glyph-1-3-003d2b95">
<path d="M 7.21875 -2.5 C 7.21875 -2.609375 7.125 -2.703125 7.015625 -2.703125 L 0.765625 -2.703125 C 0.65625 -2.703125 0.5625 -2.609375 0.5625 -2.5 C 0.5625 -2.390625 0.65625 -2.296875 0.765625 -2.296875 L 7.015625 -2.296875 C 7.125 -2.296875 7.21875 -2.390625 7.21875 -2.5 Z M 7.21875 -2.5 "/>
</g>
<g id="glyph-1-4-003d2b95">
<path d="M 4.484375 -2.015625 C 4.484375 -3.203125 3.671875 -4.203125 2.59375 -4.203125 C 2.109375 -4.203125 1.6875 -4.046875 1.3125 -3.6875 L 1.3125 -5.640625 C 1.515625 -5.578125 1.84375 -5.515625 2.171875 -5.515625 C 3.40625 -5.515625 4.09375 -6.421875 4.09375 -6.546875 C 4.09375 -6.609375 4.0625 -6.65625 4 -6.65625 C 4 -6.65625 3.96875 -6.65625 3.921875 -6.625 C 3.71875 -6.546875 3.234375 -6.34375 2.5625 -6.34375 C 2.15625 -6.34375 1.703125 -6.40625 1.234375 -6.625 C 1.15625 -6.65625 1.109375 -6.65625 1.109375 -6.65625 C 1.015625 -6.65625 1.015625 -6.5625 1.015625 -6.40625 L 1.015625 -3.453125 C 1.015625 -3.265625 1.015625 -3.1875 1.15625 -3.1875 C 1.21875 -3.1875 1.234375 -3.21875 1.28125 -3.28125 C 1.390625 -3.4375 1.765625 -3.984375 2.5625 -3.984375 C 3.09375 -3.984375 3.34375 -3.515625 3.421875 -3.34375 C 3.578125 -2.96875 3.59375 -2.578125 3.59375 -2.078125 C 3.59375 -1.734375 3.59375 -1.125 3.359375 -0.703125 C 3.125 -0.3125 2.75 -0.0625 2.296875 -0.0625 C 1.5625 -0.0625 0.984375 -0.59375 0.8125 -1.1875 C 0.84375 -1.171875 0.875 -1.15625 0.984375 -1.15625 C 1.3125 -1.15625 1.484375 -1.40625 1.484375 -1.65625 C 1.484375 -1.890625 1.3125 -2.140625 0.984375 -2.140625 C 0.84375 -2.140625 0.5 -2.0625 0.5 -1.609375 C 0.5 -0.75 1.1875 0.21875 2.3125 0.21875 C 3.46875 0.21875 4.484375 -0.734375 4.484375 -2.015625 Z M 4.484375 -2.015625 "/>
</g>
<g id="glyph-2-0-003d2b95">
<path d="M 1.921875 -0.53125 C 1.921875 -0.8125 1.6875 -1.0625 1.390625 -1.0625 C 1.09375 -1.0625 0.859375 -0.8125 0.859375 -0.53125 C 0.859375 -0.234375 1.09375 0 1.390625 0 C 1.6875 0 1.921875 -0.234375 1.921875 -0.53125 Z M 1.921875 -0.53125 "/>
</g>
<g id="glyph-3-0-003d2b95">
<path d="M 4.59375 -3.203125 C 4.59375 -4 4.546875 -4.796875 4.203125 -5.546875 C 3.734375 -6.5 2.921875 -6.65625 2.5 -6.65625 C 1.90625 -6.65625 1.171875 -6.40625 0.765625 -5.46875 C 0.4375 -4.78125 0.390625 -4 0.390625 -3.203125 C 0.390625 -2.453125 0.4375 -1.546875 0.84375 -0.796875 C 1.265625 0.015625 2 0.21875 2.484375 0.21875 C 3.03125 0.21875 3.796875 0.015625 4.234375 -0.9375 C 4.546875 -1.625 4.59375 -2.40625 4.59375 -3.203125 Z M 3.765625 -3.3125 C 3.765625 -2.5625 3.765625 -1.890625 3.65625 -1.25 C 3.515625 -0.296875 2.9375 0 2.484375 0 C 2.09375 0 1.515625 -0.25 1.328125 -1.203125 C 1.21875 -1.8125 1.21875 -2.734375 1.21875 -3.3125 C 1.21875 -3.953125 1.21875 -4.625 1.296875 -5.15625 C 1.484375 -6.34375 2.234375 -6.4375 2.484375 -6.4375 C 2.8125 -6.4375 3.484375 -6.265625 3.671875 -5.265625 C 3.765625 -4.703125 3.765625 -3.953125 3.765625 -3.3125 Z M 3.765625 -3.3125 "/>
</g>
<g id="glyph-4-0-003d2b95">
<path d="M 4.1875 0 L 4.1875 -0.3125 L 3.875 -0.3125 C 2.96875 -0.3125 2.9375 -0.421875 2.9375 -0.796875 L 2.9375 -6.40625 C 2.9375 -6.640625 2.9375 -6.65625 2.703125 -6.65625 C 2.09375 -6.015625 1.203125 -6.015625 0.890625 -6.015625 L 0.890625 -5.703125 C 1.09375 -5.703125 1.6875 -5.703125 2.203125 -5.96875 L 2.203125 -0.796875 C 2.203125 -0.4375 2.171875 -0.3125 1.265625 -0.3125 L 0.953125 -0.3125 L 0.953125 0 C 1.296875 -0.03125 2.171875 -0.03125 2.5625 -0.03125 C 2.96875 -0.03125 3.84375 -0.03125 4.1875 0 Z M 4.1875 0 "/>
</g>
<g id="glyph-4-1-003d2b95">
<path d="M 1.921875 -0.53125 C 1.921875 -0.8125 1.6875 -1.0625 1.390625 -1.0625 C 1.09375 -1.0625 0.859375 -0.8125 0.859375 -0.53125 C 0.859375 -0.234375 1.09375 0 1.390625 0 C 1.6875 0 1.921875 -0.234375 1.921875 -0.53125 Z M 1.921875 -0.53125 "/>
</g>
<g id="glyph-4-2-003d2b95">
<path d="M 4.59375 -3.203125 C 4.59375 -4 4.546875 -4.796875 4.203125 -5.546875 C 3.734375 -6.5 2.921875 -6.65625 2.5 -6.65625 C 1.90625 -6.65625 1.171875 -6.40625 0.765625 -5.46875 C 0.4375 -4.78125 0.390625 -4 0.390625 -3.203125 C 0.390625 -2.453125 0.4375 -1.546875 0.84375 -0.796875 C 1.265625 0.015625 2 0.21875 2.484375 0.21875 C 3.03125 0.21875 3.796875 0.015625 4.234375 -0.9375 C 4.546875 -1.625 4.59375 -2.40625 4.59375 -3.203125 Z M 3.765625 -3.3125 C 3.765625 -2.5625 3.765625 -1.890625 3.65625 -1.25 C 3.515625 -0.296875 2.9375 0 2.484375 0 C 2.09375 0 1.515625 -0.25 1.328125 -1.203125 C 1.21875 -1.8125 1.21875 -2.734375 1.21875 -3.3125 C 1.21875 -3.953125 1.21875 -4.625 1.296875 -5.15625 C 1.484375 -6.34375 2.234375 -6.4375 2.484375 -6.4375 C 2.8125 -6.4375 3.484375 -6.265625 3.671875 -5.265625 C 3.765625 -4.703125 3.765625 -3.953125 3.765625 -3.3125 Z M 3.765625 -3.3125 "/>
</g>
</g>
</defs>
<path fill-rule="nonzero" fill="rgb(100%, 100%, 100%)" fill-opacity="1" d="M 31 244 L 423 244 L 423 2 L 31 2 Z M 31 244 "/>
<g fill="rgb(0%, 0%, 0%)" fill-opacity="1">
<use xlink:href="#glyph-0-0-003d2b95" x="24.817347" y="259.059999"/>
</g>
<g fill="rgb(0%, 0%, 0%)" fill-opacity="1">
<use xlink:href="#glyph-1-0-003d2b95" x="32.597346" y="259.059999"/>
</g>
<g fill="rgb(0%, 0%, 0%)" fill-opacity="1">
<use xlink:href="#glyph-1-1-003d2b95" x="37.597346" y="259.059999"/>
</g>
<g fill="rgb(0%, 0%, 0%)" fill-opacity="1">
<use xlink:href="#glyph-1-2-003d2b95" x="40.377345" y="259.059999"/>
</g>
<g fill="rgb(0%, 0%, 0%)" fill-opacity="1">
<use xlink:href="#glyph-1-3-003d2b95" x="120.769373" y="259.059999"/>
</g>
<g fill="rgb(0%, 0%, 0%)" fill-opacity="1">
<use xlink:href="#glyph-1-2-003d2b95" x="128.549372" y="259.059999"/>
</g>
<g fill="rgb(0%, 0%, 0%)" fill-opacity="1">
<use xlink:href="#glyph-1-1-003d2b95" x="133.549372" y="259.059999"/>
</g>
<g fill="rgb(0%, 0%, 0%)" fill-opacity="1">
<use xlink:href="#glyph-1-4-003d2b95" x="136.329372" y="259.059999"/>
</g>
<g fill="rgb(0%, 0%, 0%)" fill-opacity="1">
<use xlink:href="#glyph-1-2-003d2b95" x="220.611395" y="259.059999"/>
</g>
<g fill="rgb(0%, 0%, 0%)" fill-opacity="1">
<use xlink:href="#glyph-1-1-003d2b95" x="225.611395" y="259.059999"/>
</g>
<g fill="rgb(0%, 0%, 0%)" fill-opacity="1">
<use xlink:href="#glyph-1-2-003d2b95" x="228.391395" y="259.059999"/>
</g>
<g fill="rgb(0%, 0%, 0%)" fill-opacity="1">
<use xlink:href="#glyph-1-2-003d2b95" x="316.563418" y="259.059999"/>
</g>
<g fill="rgb(0%, 0%, 0%)" fill-opacity="1">
<use xlink:href="#glyph-1-1-003d2b95" x="321.563418" y="259.059999"/>
</g>
<g fill="rgb(0%, 0%, 0%)" fill-opacity="1">
<use xlink:href="#glyph-1-4-003d2b95" x="324.343417" y="259.059999"/>
</g>
<g fill="rgb(0%, 0%, 0%)" fill-opacity="1">
<use xlink:href="#glyph-1-0-003d2b95" x="412.51544" y="259.059999"/>
</g>
<g fill="rgb(0%, 0%, 0%)" fill-opacity="1">
<use xlink:href="#glyph-2-0-003d2b95" x="417.51544" y="259.059999"/>
</g>
<g fill="rgb(0%, 0%, 0%)" fill-opacity="1">
<use xlink:href="#glyph-3-0-003d2b95" x="420.29544" y="259.059999"/>
</g>
<g fill="rgb(0%, 0%, 0%)" fill-opacity="1">
<use xlink:href="#glyph-1-3-003d2b95" x="1.44" y="244.531435"/>
</g>
<g fill="rgb(0%, 0%, 0%)" fill-opacity="1">
<use xlink:href="#glyph-4-0-003d2b95" x="9.22" y="244.531435"/>
</g>
<g fill="rgb(0%, 0%, 0%)" fill-opacity="1">
<use xlink:href="#glyph-4-1-003d2b95" x="14.22" y="244.531435"/>
</g>
<g fill="rgb(0%, 0%, 0%)" fill-opacity="1">
<use xlink:href="#glyph-1-2-003d2b95" x="16.999999" y="244.531435"/>
</g>
<g fill="rgb(0%, 0%, 0%)" fill-opacity="1">
<use xlink:href="#glyph-1-3-003d2b95" x="1.44" y="185.295885"/>
</g>
<g fill="rgb(0%, 0%, 0%)" fill-opacity="1">
<use xlink:href="#glyph-4-2-003d2b95" x="9.22" y="185.295885"/>
</g>
<g fill="rgb(0%, 0%, 0%)" fill-opacity="1">
<use xlink:href="#glyph-4-1-003d2b95" x="14.22" y="185.295885"/>
</g>
<g fill="rgb(0%, 0%, 0%)" fill-opacity="1">
<use xlink:href="#glyph-1-4-003d2b95" x="16.999999" y="185.295885"/>
</g>
<g fill="rgb(0%, 0%, 0%)" fill-opacity="1">
<use xlink:href="#glyph-4-2-003d2b95" x="9.22" y="126.060335"/>
</g>
<g fill="rgb(0%, 0%, 0%)" fill-opacity="1">
<use xlink:href="#glyph-4-1-003d2b95" x="14.22" y="126.060335"/>
</g>
<g fill="rgb(0%, 0%, 0%)" fill-opacity="1">
<use xlink:href="#glyph-1-2-003d2b95" x="16.999999" y="126.060335"/>
</g>
<g fill="rgb(0%, 0%, 0%)" fill-opacity="1">
<use xlink:href="#glyph-4-2-003d2b95" x="9.22" y="66.824785"/>
</g>
<g fill="rgb(0%, 0%, 0%)" fill-opacity="1">
<use xlink:href="#glyph-4-1-003d2b95" x="14.22" y="66.824785"/>
</g>
<g fill="rgb(0%, 0%, 0%)" fill-opacity="1">
<use xlink:href="#glyph-1-4-003d2b95" x="16.999999" y="66.824785"/>
</g>
<g fill="rgb(0%, 0%, 0%)" fill-opacity="1">
<use xlink:href="#glyph-4-0-003d2b95" x="9.22" y="7.589235"/>
</g>
<g fill="rgb(0%, 0%, 0%)" fill-opacity="1">
<use xlink:href="#glyph-4-1-003d2b95" x="14.22" y="7.589235"/>
</g>
<g fill="rgb(0%, 0%, 0%)" fill-opacity="1">
<use xlink:href="#glyph-1-2-003d2b95" x="16.999999" y="7.589235"/>
</g>
<path fill="none" stroke-width="1.5" stroke-linecap="butt" stroke-linejoin="miter" stroke="rgb(0%, 44.705883%, 69.803923%)" stroke-opacity="1" stroke-miterlimit="2" d="M 227 123 L 234.675781 122.953125 L 242.335938 122.8125 L 249.964844 122.574219 L 257.550781 122.246094 L 265.078125 121.824219 L 272.535156 121.3125 L 279.90625 120.710938 L 287.175781 120.023438 L 294.332031 119.25 L 301.359375 118.394531 L 308.246094 117.460938 L 314.980469 116.453125 L 321.550781 115.371094 L 327.941406 114.21875 L 334.140625 113.003906 L 340.140625 111.726562 L 345.929688 110.398438 L 351.496094 109.015625 L 356.828125 107.585938 L 361.921875 106.117188 L 366.761719 104.609375 L 371.34375 103.074219 L 375.660156 101.511719 L 379.703125 99.929688 L 383.464844 98.335938 L 386.9375 96.734375 L 390.121094 95.128906 L 393.007812 93.53125 L 395.59375 91.941406 L 397.875 90.367188 L 399.851562 88.820312 L 401.515625 87.296875 L 402.871094 85.8125 L 403.914062 84.367188 L 404.648438 82.96875 L 405.070312 81.621094 L 405.183594 80.335938 L 404.984375 79.113281 L 404.484375 77.960938 L 403.679688 76.886719 L 402.578125 75.890625 L 401.183594 74.980469 L 399.496094 74.160156 L 397.527344 73.4375 L 395.28125 72.816406 L 392.765625 72.300781 L 389.984375 71.890625 L 386.945312 71.59375 L 383.660156 71.414062 L 380.136719 71.355469 L 376.382812 71.414062 L 372.410156 71.601562 L 368.226562 71.917969 L 363.84375 72.359375 L 359.273438 72.9375 L 354.523438 73.644531 L 349.609375 74.484375 L 344.539062 75.460938 L 339.328125 76.570312 L 333.984375 77.816406 L 328.523438 79.195312 L 322.957031 80.710938 L 317.300781 82.355469 L 311.5625 84.132812 L 305.753906 86.039062 L 299.894531 88.074219 L 293.992188 90.234375 L 288.0625 92.515625 L 282.117188 94.917969 L 276.167969 97.433594 L 270.230469 100.0625 L 264.3125 102.796875 L 258.429688 105.636719 L 252.59375 108.574219 L 246.816406 111.605469 L 241.109375 114.722656 L 235.480469 117.925781 L 229.945312 121.203125 L 224.515625 124.550781 L 219.195312 127.960938 L 214 131.429688 L 208.9375 134.949219 L 204.019531 138.515625 L 199.246094 142.113281 L 194.636719 145.746094 L 190.191406 149.394531 L 185.921875 153.0625 L 181.828125 156.734375 L 177.925781 160.40625 L 174.214844 164.066406 L 170.699219 167.710938 L 167.386719 171.332031 L 164.28125 174.917969 L 161.386719 178.464844 L 158.703125 181.960938 L 156.234375 185.402344 L 153.980469 188.78125 L 151.945312 192.085938 L 150.128906 195.308594 L 148.53125 198.445312 L 147.152344 201.488281 L 145.988281 204.429688 L 145.039062 207.257812 L 144.304688 209.976562 L 143.777344 212.566406 L 143.460938 215.03125 L 143.34375 217.359375 L 143.425781 219.546875 L 143.703125 221.585938 L 144.167969 223.472656 L 144.816406 225.203125 L 145.640625 226.769531 L 146.632812 228.171875 L 147.792969 229.398438 L 149.105469 230.453125 L 150.566406 231.332031 L 152.167969 232.027344 L 153.902344 232.535156 L 155.757812 232.859375 L 157.730469 232.996094 L 159.804688 232.941406 L 161.980469 232.699219 L 164.238281 232.261719 L 166.574219 231.632812 L 168.976562 230.808594 L 171.433594 229.796875 L 173.941406 228.59375 L 176.488281 227.199219 L 179.058594 225.617188 L 181.648438 223.851562 L 184.246094 221.898438 L 186.84375 219.769531 L 189.429688 217.460938 L 191.992188 214.980469 L 194.523438 212.328125 L 197.015625 209.511719 L 199.460938 206.535156 L 201.84375 203.40625 L 204.164062 200.125 L 206.410156 196.699219 L 208.574219 193.136719 L 210.648438 189.441406 L 212.625 185.625 L 214.496094 181.6875 L 216.257812 177.640625 L 217.902344 173.492188 L 219.425781 169.246094 L 220.820312 164.914062 L 222.082031 160.503906 L 223.207031 156.019531 L 224.195312 151.476562 L 225.035156 146.875 L 225.730469 142.230469 L 226.273438 137.550781 L 226.667969 132.84375 L 226.910156 128.113281 L 227 123.378906 L 226.9375 118.640625 L 226.71875 113.910156 L 226.347656 109.199219 L 225.828125 104.511719 L 225.15625 99.863281 L 224.335938 95.253906 L 223.375 90.699219 L 222.269531 86.207031 L 221.03125 81.785156 L 219.65625 77.4375 L 218.152344 73.179688 L 216.527344 69.015625 L 214.785156 64.949219 L 212.929688 60.996094 L 210.96875 57.15625 L 208.910156 53.445312 L 206.761719 49.859375 L 204.527344 46.414062 L 202.21875 43.109375 L 199.84375 39.953125 L 197.410156 36.953125 L 194.921875 34.109375 L 192.398438 31.433594 L 189.839844 28.925781 L 187.257812 26.589844 L 184.660156 24.429688 L 182.0625 22.449219 L 179.472656 20.652344 L 176.894531 19.042969 L 174.34375 17.617188 L 171.832031 16.382812 L 169.363281 15.339844 L 166.949219 14.488281 L 164.605469 13.828125 L 162.332031 13.359375 L 160.144531 13.085938 L 158.054688 13 L 156.066406 13.105469 L 154.191406 13.398438 L 152.4375 13.882812 L 150.8125 14.546875 L 149.328125 15.394531 L 147.992188 16.421875 L 146.808594 17.625 L 145.785156 18.996094 L 144.933594 20.539062 L 144.257812 22.242188 L 143.765625 24.105469 L 143.457031 26.121094 L 143.34375 28.285156 L 143.425781 30.589844 L 143.714844 33.03125 L 144.207031 35.605469 L 144.90625 38.300781 L 145.824219 41.113281 L 146.953125 44.039062 L 148.296875 47.0625 L 149.859375 50.1875 L 151.640625 53.398438 L 153.640625 56.6875 L 155.859375 60.054688 L 158.292969 63.484375 L 160.941406 66.976562 L 163.804688 70.515625 L 166.878906 74.09375 L 170.15625 77.710938 L 173.640625 81.351562 L 177.320312 85.011719 L 181.195312 88.679688 L 185.257812 92.355469 L 189.5 96.019531 L 193.917969 99.675781 L 198.503906 103.308594 L 203.246094 106.914062 L 208.144531 110.484375 L 213.1875 114.011719 L 218.359375 117.492188 L 223.660156 120.910156 L 229.074219 124.269531 L 234.59375 127.558594 L 240.207031 130.773438 L 245.902344 133.90625 L 251.671875 136.949219 L 257.496094 139.902344 L 263.375 142.757812 L 269.285156 145.511719 L 275.222656 148.15625 L 281.171875 150.691406 L 287.117188 153.109375 L 293.050781 155.410156 L 298.957031 157.589844 L 304.824219 159.644531 L 310.640625 161.574219 L 316.390625 163.371094 L 322.0625 165.039062 L 327.644531 166.574219 L 333.121094 167.972656 L 338.484375 169.242188 L 343.71875 170.371094 L 348.8125 171.371094 L 353.753906 172.234375 L 358.527344 172.960938 L 363.128906 173.558594 L 367.542969 174.023438 L 371.757812 174.355469 L 375.765625 174.5625 L 379.554688 174.644531 L 383.117188 174.605469 L 386.4375 174.441406 L 389.515625 174.164062 L 392.339844 173.773438 L 394.898438 173.273438 L 397.1875 172.667969 L 399.203125 171.960938 L 400.933594 171.15625 L 402.375 170.261719 L 403.527344 169.28125 L 404.378906 168.214844 L 404.925781 167.074219 L 405.171875 165.863281 L 405.109375 164.585938 L 404.734375 163.25 L 404.050781 161.859375 L 403.058594 160.421875 L 401.753906 158.941406 L 400.136719 157.425781 L 398.210938 155.878906 L 395.976562 154.3125 L 393.4375 152.722656 L 390.601562 151.125 L 387.464844 149.523438 L 384.035156 147.917969 L 380.320312 146.324219 L 376.320312 144.738281 L 372.050781 143.175781 L 367.507812 141.632812 L 362.707031 140.121094 L 357.65625 138.644531 L 352.359375 137.210938 L 346.832031 135.820312 L 341.078125 134.480469 L 335.109375 133.195312 L 328.941406 131.972656 L 322.582031 130.808594 L 316.039062 129.71875 L 309.328125 128.695312 L 302.464844 127.75 L 295.457031 126.882812 L 288.324219 126.097656 L 281.070312 125.394531 L 273.714844 124.777344 L 266.273438 124.253906 L 258.753906 123.816406 L 251.175781 123.472656 L 243.550781 123.222656 L 235.894531 123.0625 L 228.222656 123 L 220.550781 123.035156 L 212.886719 123.160156 L 205.25 123.382812 L 197.65625 123.695312 L 190.117188 124.101562 L 182.648438 124.601562 L 175.265625 125.1875 L 167.976562 125.863281 L 160.804688 126.621094 L 153.753906 127.464844 L 146.84375 128.386719 L 140.082031 129.382812 L 133.488281 130.453125 L 127.066406 131.59375 L 120.835938 132.800781 L 114.800781 134.066406 L 108.980469 135.386719 L 103.378906 136.761719 L 98.007812 138.183594 L 92.875 139.648438 L 87.996094 141.148438 L 83.371094 142.679688 L 79.011719 144.238281 L 74.925781 145.816406 L 71.121094 147.410156 L 67.597656 149.011719 L 64.371094 150.613281 L 61.433594 152.214844 L 58.800781 153.808594 L 56.472656 155.382812 L 54.445312 156.9375 L 52.730469 158.460938 L 51.328125 159.953125 L 50.234375 161.40625 L 49.449219 162.8125 L 48.980469 164.167969 L 48.816406 165.464844 L 48.964844 166.695312 L 49.417969 167.859375 L 50.171875 168.949219 L 51.226562 169.957031 L 52.578125 170.882812 L 54.21875 171.714844 L 56.140625 172.453125 L 58.34375 173.089844 L 60.820312 173.625 L 63.558594 174.050781 L 66.554688 174.367188 L 69.800781 174.566406 L 73.289062 174.644531 L 77.003906 174.601562 L 80.945312 174.4375 L 85.09375 174.140625 L 89.445312 173.71875 L 93.988281 173.164062 L 98.710938 172.480469 L 103.601562 171.660156 L 108.644531 170.703125 L 113.835938 169.617188 L 119.160156 168.390625 L 124.601562 167.035156 L 130.152344 165.542969 L 135.796875 163.917969 L 141.523438 162.160156 L 147.320312 160.273438 L 153.171875 158.257812 L 159.066406 156.117188 L 164.992188 153.855469 L 170.9375 151.472656 L 176.886719 148.976562 L 182.828125 146.363281 L 188.75 143.644531 L 194.636719 140.824219 L 200.480469 137.902344 L 206.269531 134.886719 L 211.992188 131.78125 L 217.632812 128.59375 L 223.179688 125.324219 L 228.628906 121.988281 L 233.96875 118.585938 L 239.183594 115.125 L 244.265625 111.613281 L 249.210938 108.054688 L 254.003906 104.460938 L 258.644531 100.835938 L 263.113281 97.1875 L 267.414062 93.523438 L 271.535156 89.851562 L 275.46875 86.179688 L 279.210938 82.515625 L 282.757812 78.867188 L 286.101562 75.242188 L 289.242188 71.652344 L 292.171875 68.097656 L 294.886719 64.589844 L 297.390625 61.140625 L 299.679688 57.753906 L 301.746094 54.4375 L 303.597656 51.199219 L 305.230469 48.046875 L 306.644531 44.992188 L 307.84375 42.035156 L 308.828125 39.183594 L 309.597656 36.449219 L 310.15625 33.835938 L 310.507812 31.351562 L 310.65625 29.003906 L 310.601562 26.792969 L 310.355469 24.730469 L 309.921875 22.816406 L 309.304688 21.0625 L 308.507812 19.46875 L 307.539062 18.042969 L 306.40625 16.785156 L 305.117188 15.703125 L 303.679688 14.796875 L 302.097656 14.074219 L 300.386719 13.535156 L 298.546875 13.179688 L 296.59375 13.011719 L 294.535156 13.035156 L 292.375 13.25 L 290.128906 13.65625 L 287.808594 14.257812 L 285.414062 15.046875 L 282.960938 16.03125 L 280.460938 17.203125 L 277.921875 18.566406 L 275.355469 20.117188 L 272.765625 21.855469 L 270.167969 23.777344 L 267.570312 25.878906 L 264.984375 28.160156 L 262.417969 30.613281 L 259.878906 33.238281 L 257.378906 36.027344 L 254.929688 38.980469 L 252.53125 42.085938 L 250.203125 45.34375 L 247.945312 48.746094 L 245.765625 52.289062 L 243.679688 55.960938 L 241.6875 59.761719 L 239.796875 63.679688 L 238.019531 67.707031 L 236.355469 71.839844 L 234.8125 76.070312 L 233.394531 80.390625 L 232.113281 84.789062 L 230.964844 89.261719 L 229.957031 93.796875 L 229.09375 98.390625 L 228.375 103.027344 L 227.804688 107.703125 L 227.386719 112.40625 L 227.121094 117.132812 L 227.003906 121.867188 L 227.046875 126.605469 L 227.238281 131.335938 L 227.585938 136.054688 L 228.082031 140.742188 L 228.730469 145.402344 L 229.523438 150.015625 L 230.464844 154.578125 L 231.546875 159.082031 L 232.765625 163.515625 L 234.121094 167.875 L 235.601562 172.148438 L 237.207031 176.332031 L 238.933594 180.410156 L 240.769531 184.382812 L 242.714844 188.238281 L 244.757812 191.972656 L 246.894531 195.578125 L 249.113281 199.046875 L 251.410156 202.375 L 253.777344 205.554688 L 256.203125 208.582031 L 258.679688 211.449219 L 261.203125 214.152344 L 263.753906 216.6875 L 266.335938 219.050781 L 268.925781 221.238281 L 271.527344 223.25 L 274.121094 225.074219 L 276.699219 226.714844 L 279.253906 228.167969 L 281.773438 229.433594 L 284.25 230.507812 L 286.671875 231.390625 L 289.03125 232.082031 L 291.3125 232.578125 L 293.515625 232.886719 L 295.621094 233 L 297.628906 232.925781 L 299.523438 232.660156 L 301.296875 232.207031 L 302.941406 231.570312 L 304.449219 230.753906 L 305.808594 229.753906 L 307.015625 228.582031 L 308.0625 227.234375 L 308.945312 225.71875 L 309.648438 224.039062 L 310.171875 222.203125 L 310.507812 220.210938 L 310.65625 218.070312 L 310.601562 215.789062 L 310.347656 213.367188 L 309.890625 210.8125 L 309.21875 208.136719 L 308.339844 205.34375 L 307.246094 202.4375 L 305.933594 199.425781 L 304.40625 196.316406 L 302.660156 193.121094 L 300.695312 189.839844 L 298.511719 186.488281 L 296.109375 183.066406 L 293.496094 179.585938 L 290.667969 176.054688 L 287.628906 172.476562 L 284.378906 168.867188 L 280.929688 165.230469 L 277.28125 161.574219 L 273.4375 157.902344 L 269.40625 154.230469 L 265.191406 150.5625 L 260.800781 146.90625 L 256.242188 143.269531 L 251.519531 139.65625 L 246.648438 136.082031 L 241.628906 132.546875 L 236.476562 129.058594 L 231.195312 125.628906 L 225.796875 122.261719 L 220.292969 118.960938 L 214.695312 115.734375 L 209.011719 112.589844 L 203.253906 109.527344 L 197.4375 106.5625 L 191.566406 103.691406 L 185.660156 100.921875 L 179.726562 98.257812 L 173.78125 95.707031 L 167.832031 93.269531 L 161.894531 90.949219 L 155.984375 88.75 L 150.109375 86.675781 L 144.285156 84.726562 L 138.523438 82.90625 L 132.835938 81.21875 L 127.242188 79.664062 L 121.746094 78.242188 L 116.363281 76.953125 L 111.109375 75.800781 L 105.992188 74.78125 L 101.027344 73.898438 L 96.222656 73.148438 L 91.59375 72.53125 L 87.148438 72.042969 L 82.902344 71.6875 L 78.859375 71.460938 L 75.035156 71.359375 L 71.4375 71.382812 L 68.078125 71.523438 L 64.960938 71.785156 L 62.097656 72.15625 L 59.492188 72.640625 L 57.160156 73.230469 L 55.101562 73.921875 L 53.324219 74.710938 L 51.835938 75.589844 L 50.640625 76.558594 L 49.742188 77.609375 L 49.144531 78.738281 L 48.851562 79.9375 L 48.863281 81.207031 L 49.1875 82.535156 L 49.820312 83.914062 L 50.765625 85.347656 L 52.023438 86.820312 L 53.589844 88.332031 L 55.464844 89.871094 L 57.648438 91.4375 L 60.140625 93.023438 L 62.929688 94.621094 L 66.019531 96.222656 L 69.402344 97.828125 L 73.070312 99.425781 L 77.023438 101.011719 L 81.253906 102.578125 L 85.753906 104.125 L 90.511719 105.640625 L 95.523438 107.121094 L 100.78125 108.566406 L 106.277344 109.960938 L 111.992188 111.308594 L 117.925781 112.605469 L 124.066406 113.839844 L 130.398438 115.011719 L 136.910156 116.113281 L 143.59375 117.148438 L 150.433594 118.105469 L 157.417969 118.984375 L 164.535156 119.785156 L 171.769531 120.5 L 179.109375 121.128906 L 186.539062 121.671875 L 194.046875 122.121094 L 201.617188 122.480469 L 209.234375 122.746094 L 216.886719 122.917969 L 224.554688 122.996094 L 232.230469 122.976562 L 239.898438 122.867188 L 247.539062 122.660156 L 255.140625 122.359375 L 262.6875 121.96875 L 270.167969 121.484375 L 277.566406 120.910156 L 284.871094 120.25 L 292.066406 119.503906 L 299.136719 118.675781 L 306.070312 117.765625 L 312.855469 116.78125 L 319.476562 115.722656 L 325.925781 114.59375 L 332.1875 113.398438 L 338.253906 112.140625 L 344.109375 110.828125 L 349.746094 109.460938 L 355.15625 108.046875 L 360.324219 106.589844 L 365.246094 105.09375 L 369.914062 103.566406 L 374.316406 102.011719 L 378.445312 100.4375 L 382.296875 98.84375 L 385.863281 97.246094 L 389.140625 95.640625 L 392.121094 94.039062 L 394.800781 92.445312 L 397.179688 90.867188 L 399.253906 89.308594 L 401.019531 87.777344 L 402.472656 86.28125 L 403.617188 84.820312 L 404.449219 83.40625 L 404.96875 82.046875 L 405.179688 80.738281 L 405.082031 79.496094 L 404.675781 78.320312 L 403.96875 77.21875 L 402.960938 76.199219 L 401.660156 75.261719 L 400.066406 74.414062 L 398.1875 73.660156 L 396.027344 73.003906 L 393.59375 72.453125 L 390.898438 72.007812 L 387.941406 71.675781 L 384.734375 71.460938 L 381.285156 71.359375 L 377.605469 71.382812 L 373.699219 71.53125 L 369.582031 71.804688 L 365.261719 72.203125 L 360.75 72.738281 L 356.054688 73.402344 L 351.191406 74.203125 L 346.171875 75.136719 L 341.003906 76.203125 L 335.699219 77.40625 L 330.277344 78.742188 L 324.742188 80.210938 L 319.113281 81.816406 L 313.398438 83.554688 L 307.609375 85.417969 L 301.765625 87.414062 L 295.878906 89.535156 L 289.957031 91.777344 L 284.011719 94.140625 L 278.0625 96.621094 L 272.121094 99.210938 L 266.195312 101.914062 L 260.300781 104.722656 L 254.449219 107.628906 L 248.648438 110.628906 L 242.917969 113.71875 L 237.265625 116.894531 L 231.699219 120.148438 L 226.234375 123.476562 L 220.878906 126.867188 L 215.640625 130.320312 L 210.535156 133.824219 L 205.570312 137.375 L 200.75 140.964844 L 196.085938 144.585938 L 191.589844 148.230469 L 187.261719 151.894531 L 183.113281 155.5625 L 179.148438 159.238281 L 175.375 162.902344 L 171.796875 166.554688 L 168.421875 170.183594 L 165.246094 173.78125 L 162.285156 177.339844 L 159.53125 180.855469 L 156.996094 184.3125 L 154.675781 187.710938 L 152.570312 191.039062 L 150.683594 194.289062 L 149.015625 197.457031 L 147.566406 200.53125 L 146.335938 203.503906 L 145.320312 206.371094 L 144.515625 209.121094 L 143.921875 211.753906 L 143.539062 214.261719 L 143.359375 216.632812 L 143.378906 218.863281 L 143.59375 220.953125 L 144 222.886719 L 144.589844 224.667969 L 145.359375 226.289062 L 146.300781 227.742188 L 147.40625 229.027344 L 148.671875 230.136719 L 150.085938 231.070312 L 151.644531 231.824219 L 153.335938 232.394531 L 155.15625 232.777344 L 157.089844 232.972656 L 159.132812 232.980469 L 161.277344 232.796875 L 163.507812 232.421875 L 165.820312 231.851562 L 168.203125 231.09375 L 170.644531 230.140625 L 173.140625 228.996094 L 175.671875 227.664062 L 178.238281 226.140625 L 180.824219 224.433594 L 183.421875 222.539062 L 186.019531 220.464844 L 188.605469 218.214844 L 191.175781 215.789062 L 193.71875 213.191406 L 196.226562 210.425781 L 198.6875 207.5 L 201.09375 204.417969 L 203.433594 201.183594 L 205.703125 197.804688 L 207.894531 194.285156 L 209.996094 190.632812 L 212.003906 186.851562 L 213.910156 182.953125 L 215.707031 178.941406 L 217.390625 174.824219 L 218.953125 170.609375 L 220.390625 166.304688 L 221.695312 161.914062 L 222.863281 157.457031 L 223.894531 152.929688 L 224.78125 148.347656 L 225.523438 143.714844 L 226.117188 139.042969 L 226.5625 134.34375 L 226.851562 129.621094 L 226.988281 124.886719 L 226.972656 120.148438 L 226.804688 115.414062 L 226.484375 110.695312 L 226.007812 106 L 225.386719 101.339844 L 224.613281 96.71875 L 223.695312 92.144531 L 222.636719 87.632812 L 221.441406 83.183594 L 220.109375 78.8125 L 218.644531 74.527344 L 217.058594 70.328125 L 215.351562 66.234375 L 213.53125 62.242188 L 211.605469 58.367188 L 209.578125 54.613281 L 207.457031 50.988281 L 205.25 47.496094 L 202.960938 44.144531 L 200.605469 40.941406 L 198.191406 37.890625 L 195.71875 34.996094 L 193.207031 32.265625 L 190.65625 29.703125 L 188.082031 27.3125 L 185.488281 25.097656 L 182.890625 23.058594 L 180.296875 21.203125 L 177.714844 19.535156 L 175.15625 18.050781 L 172.628906 16.753906 L 170.144531 15.652344 L 167.710938 14.738281 L 165.34375 14.015625 L 163.046875 13.488281 L 160.832031 13.152344 L 158.710938 13.007812 L 156.6875 13.050781 L 154.773438 13.285156 L 152.980469 13.707031 L 151.316406 14.316406 L 149.785156 15.105469 L 148.402344 16.074219 L 147.167969 17.222656 L 146.09375 18.539062 L 145.1875 20.027344 L 144.453125 21.679688 L 143.902344 23.496094 L 143.535156 25.460938 L 143.359375 27.578125 L 143.378906 29.839844 L 143.601562 32.238281 L 144.027344 34.769531 L 144.660156 37.429688 L 145.507812 40.207031 L 146.570312 43.09375 L 147.84375 46.089844 L 149.339844 49.179688 L 151.050781 52.363281 L 152.980469 55.632812 L 155.128906 58.976562 L 157.496094 62.386719 L 160.074219 65.859375 L 162.871094 69.382812 L 165.878906 72.949219 L 169.089844 76.554688 L 172.507812 80.191406 L 176.128906 83.84375 L 179.941406 87.511719 L 183.941406 91.183594 L 188.128906 94.855469 L 192.492188 98.511719 L 197.023438 102.15625 L 201.71875 105.769531 L 206.570312 109.351562 L 211.566406 112.894531 L 216.699219 116.386719 L 221.960938 119.828125 L 227.339844 123.207031 L 232.824219 126.519531 L 238.410156 129.757812 L 244.078125 132.917969 L 249.824219 135.992188 L 255.636719 138.972656 L 261.496094 141.859375 L 267.398438 144.644531 L 273.328125 147.324219 L 279.277344 149.894531 L 285.222656 152.351562 L 291.164062 154.691406 L 297.082031 156.910156 L 302.960938 159.003906 L 308.792969 160.972656 L 314.566406 162.8125 L 320.265625 164.519531 L 325.878906 166.097656 L 331.390625 167.542969 L 336.789062 168.851562 L 342.066406 170.027344 L 347.207031 171.066406 L 352.195312 171.972656 L 357.027344 172.742188 L 361.683594 173.382812 L 366.15625 173.886719 L 370.4375 174.265625 L 374.511719 174.511719 L 378.371094 174.632812 L 382.007812 174.628906 L 385.40625 174.507812 L 388.5625 174.265625 L 391.46875 173.910156 L 394.113281 173.445312 L 396.488281 172.871094 L 398.589844 172.195312 L 400.414062 171.421875 L 401.949219 170.554688 L 403.191406 169.601562 L 404.136719 168.5625 L 404.785156 167.445312 L 405.125 166.257812 L 405.160156 165 L 404.886719 163.683594 L 404.304688 162.308594 L 403.410156 160.886719 L 402.203125 159.417969 L 400.683594 157.914062 L 398.855469 156.375 L 396.722656 154.8125 L 394.28125 153.230469 L 391.539062 151.636719 L 388.496094 150.03125 L 385.160156 148.429688 L 381.535156 146.828125 L 377.625 145.242188 L 373.441406 143.671875 L 368.984375 142.121094 L 364.265625 140.601562 L 359.292969 139.113281 L 354.074219 137.664062 L 348.617188 136.257812 L 342.933594 134.902344 L 337.035156 133.597656 L 330.929688 132.355469 L 324.625 131.171875 L 318.140625 130.058594 L 311.484375 129.011719 L 304.667969 128.042969 L 297.707031 127.148438 L 290.609375 126.335938 L 283.390625 125.609375 L 276.066406 124.964844 L 268.652344 124.410156 L 261.15625 123.945312 L 253.59375 123.570312 L 245.984375 123.289062 L 238.335938 123.105469 L 230.667969 123.011719 L 222.992188 123.011719 L 215.324219 123.109375 L 207.679688 123.300781 L 200.070312 123.585938 L 192.511719 123.964844 L 185.019531 124.433594 L 177.605469 124.992188 L 170.289062 125.640625 L 163.074219 126.371094 L 155.984375 127.1875 L 149.027344 128.085938 L 142.21875 129.058594 L 135.570312 130.105469 L 129.09375 131.222656 L 122.800781 132.410156 L 116.703125 133.65625 L 110.8125 134.960938 L 105.136719 136.320312 L 99.691406 137.726562 L 94.484375 139.175781 L 89.523438 140.667969 L 84.816406 142.1875 L 80.371094 143.738281 L 76.199219 145.3125 L 72.300781 146.902344 L 68.6875 148.5 L 65.367188 150.105469 L 62.335938 151.707031 L 59.605469 153.300781 L 57.179688 154.882812 L 55.058594 156.445312 L 53.246094 157.980469 L 51.742188 159.484375 L 50.546875 160.949219 L 49.667969 162.371094 L 49.097656 163.742188 L 48.835938 165.058594 L 48.886719 166.3125 L 49.242188 167.496094 L 49.898438 168.609375 L 50.859375 169.644531 L 52.117188 170.597656 L 53.664062 171.460938 L 55.5 172.226562 L 57.613281 172.898438 L 60.003906 173.46875 L 62.660156 173.929688 L 65.574219 174.277344 L 68.742188 174.515625 L 72.152344 174.632812 L 75.796875 174.628906 L 79.667969 174.503906 L 83.75 174.25 L 88.039062 173.867188 L 92.523438 173.355469 L 97.1875 172.710938 L 102.023438 171.933594 L 107.023438 171.023438 L 112.167969 169.976562 L 117.449219 168.796875 L 122.855469 167.480469 L 128.371094 166.03125 L 133.988281 164.449219 L 139.691406 162.734375 L 145.464844 160.886719 L 151.300781 158.914062 L 157.183594 156.8125 L 163.101562 154.589844 L 169.042969 152.246094 L 174.992188 149.785156 L 180.9375 147.207031 L 186.867188 144.523438 L 192.765625 141.734375 L 198.625 138.84375 L 204.433594 135.855469 L 210.175781 132.777344 L 215.84375 129.617188 L 221.421875 126.375 L 226.90625 123.058594 L 232.28125 119.675781 L 237.535156 116.234375 L 242.664062 112.738281 L 247.652344 109.195312 L 252.496094 105.609375 L 257.183594 101.992188 L 261.710938 98.351562 L 266.0625 94.691406 L 270.242188 91.019531 L 274.234375 87.347656 L 278.039062 83.683594 L 281.648438 80.027344 L 285.058594 76.394531 L 288.261719 72.792969 L 291.261719 69.222656 L 294.046875 65.703125 L 296.617188 62.234375 L 298.972656 58.824219 L 301.113281 55.484375 L 303.03125 52.222656 L 304.734375 49.042969 L 306.21875 45.953125 L 307.484375 42.964844 L 308.535156 40.078125 L 309.375 37.308594 L 310 34.65625 L 310.417969 32.128906 L 310.628906 29.738281 L 310.640625 27.480469 L 310.457031 25.371094 L 310.082031 23.410156 L 309.519531 21.605469 L 308.777344 19.960938 L 307.863281 18.480469 L 306.785156 17.167969 L 305.542969 16.027344 L 304.152344 15.066406 L 302.617188 14.285156 L 300.945312 13.683594 L 299.144531 13.273438 L 297.226562 13.046875 L 295.199219 13.007812 L 293.074219 13.164062 L 290.855469 13.507812 L 288.554688 14.046875 L 286.183594 14.773438 L 283.75 15.695312 L 281.261719 16.808594 L 278.734375 18.113281 L 276.175781 19.605469 L 273.59375 21.285156 L 270.996094 23.148438 L 268.398438 25.191406 L 265.808594 27.414062 L 263.234375 29.816406 L 260.683594 32.386719 L 258.171875 35.121094 L 255.703125 38.023438 L 253.289062 41.082031 L 250.9375 44.289062 L 248.65625 47.648438 L 246.453125 51.144531 L 244.335938 54.777344 L 242.3125 58.535156 L 240.386719 62.417969 L 238.574219 66.414062 L 236.871094 70.515625 L 235.289062 74.714844 L 233.832031 79.007812 L 232.507812 83.378906 L 231.316406 87.832031 L 230.261719 92.347656 L 229.351562 96.921875 L 228.585938 101.546875 L 227.96875 106.210938 L 227.503906 110.90625 L 227.1875 115.625 L 227.023438 120.359375 L 227.015625 125.097656 L 227.160156 129.832031 L 227.457031 134.554688 L 227.90625 139.253906 L 228.507812 143.921875 L 229.257812 148.550781 L 230.148438 153.132812 L 231.1875 157.65625 L 232.363281 162.113281 L 233.675781 166.496094 L 235.117188 170.796875 L 236.683594 175.007812 L 238.371094 179.121094 L 240.175781 183.128906 L 242.085938 187.023438 L 244.097656 190.796875 L 246.203125 194.445312 L 248.398438 197.957031 L 250.671875 201.332031 L 253.015625 204.558594 L 255.425781 207.632812 L 257.886719 210.554688 L 260.394531 213.308594 L 262.9375 215.898438 L 265.511719 218.320312 L 268.101562 220.5625 L 270.699219 222.628906 L 273.292969 224.511719 L 275.878906 226.210938 L 278.441406 227.726562 L 280.976562 229.050781 L 283.464844 230.1875 L 285.90625 231.128906 L 288.285156 231.882812 L 290.59375 232.441406 L 292.824219 232.808594 L 294.960938 232.984375 L 297 232.96875 L 298.929688 232.765625 L 300.746094 232.371094 L 302.429688 231.792969 L 303.984375 231.035156 L 305.390625 230.09375 L 306.648438 228.972656 L 307.75 227.679688 L 308.683594 226.21875 L 309.445312 224.59375 L 310.027344 222.804688 L 310.421875 220.863281 L 310.628906 218.769531 L 310.640625 216.53125 L 310.453125 214.152344 L 310.058594 211.640625 L 309.457031 209.003906 L 308.644531 206.246094 L 307.617188 203.375 L 306.375 200.394531 L 304.917969 197.316406 L 303.238281 194.148438 L 301.34375 190.894531 L 299.230469 187.5625 L 296.898438 184.160156 L 294.351562 180.699219 L 291.589844 177.183594 L 288.617188 173.621094 L 285.4375 170.019531 L 282.050781 166.390625 L 278.464844 162.738281 L 274.683594 159.074219 L 270.710938 155.402344 L 266.554688 151.730469 L 262.21875 148.070312 L 257.710938 144.425781 L 253.042969 140.804688 L 248.214844 137.214844 L 243.242188 133.667969 L 238.128906 130.164062 L 232.890625 126.714844 L 227.527344 123.328125 L 222.058594 120.003906 L 216.488281 116.753906 L 210.832031 113.582031 L 205.097656 110.492188 L 199.296875 107.496094 L 193.441406 104.59375 L 187.546875 101.792969 L 181.617188 99.09375 L 175.675781 96.507812 L 169.726562 94.03125 L 163.785156 91.675781 L 157.863281 89.4375 L 151.976562 87.320312 L 146.132812 85.332031 L 140.351562 83.472656 L 134.640625 81.742188 L 129.011719 80.144531 L 123.484375 78.679688 L 118.066406 77.347656 L 112.769531 76.152344 L 107.605469 75.089844 L 102.589844 74.164062 L 97.734375 73.371094 L 93.046875 72.710938 L 88.542969 72.183594 L 84.234375 71.789062 L 80.125 71.519531 L 76.230469 71.378906 L 72.558594 71.363281 L 69.121094 71.464844 L 65.925781 71.6875 L 62.980469 72.027344 L 60.292969 72.476562 L 57.875 73.03125 L 55.726562 73.691406 L 53.859375 74.449219 L 52.277344 75.300781 L 50.988281 76.242188 L 49.996094 77.265625 L 49.300781 78.371094 L 48.910156 79.550781 L 48.824219 80.796875 L 49.050781 82.105469 L 49.585938 83.46875 L 50.429688 84.886719 L 51.585938 86.347656 L 53.054688 87.847656 L 54.835938 89.378906 L 56.921875 90.9375 L 59.3125 92.515625 L 62.007812 94.109375 L 65.003906 95.710938 L 68.292969 97.316406 L 71.871094 98.917969 L 75.734375 100.507812 L 79.878906 102.082031 L 84.292969 103.632812 L 88.96875 105.160156 L 93.902344 106.652344 L 99.082031 108.109375 L 104.5 109.523438 L 110.148438 110.886719 L 116.015625 112.199219 L 122.089844 113.453125 L 128.359375 114.644531 L 134.816406 115.769531 L 141.445312 116.824219 L 148.238281 117.808594 L 155.179688 118.714844 L 162.253906 119.539062 L 169.453125 120.28125 L 176.761719 120.9375 L 184.164062 121.507812 L 191.648438 121.988281 L 199.199219 122.375 L 206.804688 122.671875 L 214.445312 122.875 L 222.113281 122.980469 "/>
<path fill="none" stroke-width="0.7" stroke-linecap="butt" stroke-linejoin="miter" stroke="rgb(0%, 0%, 0%)" stroke-opacity="1" stroke-miterlimit="1.154701" d="M 35.097656 244.5 L 35.097656 248.5 "/>
<path fill="none" stroke-width="0.7" stroke-linecap="butt" stroke-linejoin="miter" stroke="rgb(0%, 0%, 0%)" stroke-opacity="1" stroke-miterlimit="1.154701" d="M 131.050781 244.5 L 131.050781 248.5 "/>
<path fill="none" stroke-width="0.7" stroke-linecap="butt" stroke-linejoin="miter" stroke="rgb(0%, 0%, 0%)" stroke-opacity="1" stroke-miterlimit="1.154701" d="M 227 244.5 L 227 248.5 "/>
<path fill="none" stroke-width="0.7" stroke-linecap="butt" stroke-linejoin="miter" stroke="rgb(0%, 0%, 0%)" stroke-opacity="1" stroke-miterlimit="1.154701" d="M 322.953125 244.5 L 322.953125 248.5 "/>
<path fill="none" stroke-width="0.7" stroke-linecap="butt" stroke-linejoin="miter" stroke="rgb(0%, 0%, 0%)" stroke-opacity="1" stroke-miterlimit="1.154701" d="M 418.90625 244.5 L 418.90625 248.5 "/>
<path fill="none" stroke-width="0.7" stroke-linecap="butt" stroke-linejoin="miter" stroke="rgb(0%, 0%, 0%)" stroke-opacity="1" stroke-miterlimit="1.154701" d="M 30.5 241.472656 L 26.5 241.472656 "/>
<path fill="none" stroke-width="0.7" stroke-linecap="butt" stroke-linejoin="miter" stroke="rgb(0%, 0%, 0%)" stroke-opacity="1" stroke-miterlimit="1.154701" d="M 30.5 182.234375 L 26.5 182.234375 "/>
<path fill="none" stroke-width="0.7" stroke-linecap="butt" stroke-linejoin="miter" stroke="rgb(0%, 0%, 0%)" stroke-opacity="1" stroke-miterlimit="1.154701" d="M 30.5 123 L 26.5 123 "/>
<path fill="none" stroke-width="0.7" stroke-linecap="butt" stroke-linejoin="miter" stroke="rgb(0%, 0%, 0%)" stroke-opacity="1" stroke-miterlimit="1.154701" d="M 30.5 63.765625 L 26.5 63.765625 "/>
<path fill="none" stroke-width="0.7" stroke-linecap="butt" stroke-linejoin="miter" stroke="rgb(0%, 0%, 0%)" stroke-opacity="1" stroke-miterlimit="1.154701" d="M 30.5 4.527344 L 26.5 4.527344 "/>
<path fill="none" stroke-width="1" stroke-linecap="butt" stroke-linejoin="miter" stroke="rgb(0%, 0%, 0%)" stroke-opacity="1" stroke-miterlimit="1.154701" d="M 30.5 244 L 423.5 244 "/>
<path fill="none" stroke-width="1" stroke-linecap="butt" stroke-linejoin="miter" stroke="rgb(0%, 0%, 0%)" stroke-opacity="1" stroke-miterlimit="1.154701" d="M 31 244.5 L 31 1.5 "/>
<path fill="none" stroke-width="1" stroke-linecap="butt" stroke-linejoin="miter" stroke="rgb(0%, 0%, 0%)" stroke-opacity="1" stroke-miterlimit="1.154701" d="M 30.5 2 L 423.5 2 "/>
<path fill="none" stroke-width="1" stroke-linecap="butt" stroke-linejoin="miter" stroke="rgb(0%, 0%, 0%)" stroke-opacity="1" stroke-miterlimit="1.154701" d="M 423 244.5 L 423 1.5 "/>
</svg>
